<svg width="113" height="83" viewBox="0 0 113 83" fill="none" xmlns="http://www.w3.org/2000/svg">
<path d="M4.92374 58.4907V67.218H3.86692V59.5987H3.81578L1.6851 61.0135V59.9396L3.86692 58.4907H4.92374Z" fill="white"/>
<path d="M14.5129 0H13.4697V56.2406H14.5129V0Z" fill="white"/>
<path d="M16.5988 0H15.5557V56.2406H16.5988V0Z" fill="white"/>
<path d="M1.47382 0H0.430664V56.2406H1.47382V0Z" fill="white"/>
<path d="M3.55976 0H2.5166V56.2406H3.55976V0Z" fill="white"/>
<path d="M8.77613 0H4.60352V51.1278H8.77613V0Z" fill="white"/>
<path d="M11.9056 0H10.3408V51H11.9056V0Z" fill="white"/>
<path d="M19.7287 0H18.6855V51.1278H19.7287V0Z" fill="white"/>
<path d="M23.9017 0H21.8154V51.1278H23.9017V0Z" fill="white"/>
<path d="M31.2043 0H30.1611V51.1278H31.2043V0Z" fill="white"/>
<path d="M36.4195 0H33.29V51.1278H36.4195V0Z" fill="white"/>
<path d="M38.506 0H37.4629V51.1278H38.506V0Z" fill="white"/>
<path d="M41.6351 0H39.5488V51.1278H41.6351V0Z" fill="white"/>
<path d="M45.8078 0H44.7646V51.1278H45.8078V0Z" fill="white"/>
<path d="M51.0236 0H49.9805V51.1278H51.0236V0Z" fill="white"/>
<path d="M53.1105 0H52.0674V51.1278H53.1105V0Z" fill="white"/>
<path d="M56.2394 0H55.1963V51.1278H56.2394V0Z" fill="white"/>
<path d="M60.4123 0H59.3691V51.1278H60.4123V0Z" fill="white"/>
<path d="M28.1067 67.218V66.451L30.9873 63.2976C31.3254 62.9282 31.6038 62.6072 31.8226 62.3345C32.0413 62.0589 32.2033 61.8004 32.3084 61.5589C32.4163 61.3146 32.4703 61.0589 32.4703 60.7919C32.4703 60.4851 32.3964 60.2194 32.2487 59.995C32.1038 59.7706 31.905 59.5973 31.6521 59.4751C31.3993 59.353 31.1152 59.2919 30.7998 59.2919C30.4646 59.2919 30.172 59.3615 29.922 59.5007C29.6748 59.6371 29.4831 59.8288 29.3467 60.076C29.2132 60.3231 29.1464 60.6129 29.1464 60.9453H28.1408C28.1408 60.4339 28.2587 59.9851 28.4945 59.5987C28.7302 59.2123 29.0513 58.9112 29.4575 58.6953C29.8666 58.4794 30.3254 58.3714 30.8339 58.3714C31.3453 58.3714 31.7984 58.4794 32.1933 58.6953C32.5882 58.9112 32.8979 59.2024 33.1223 59.5689C33.3467 59.9353 33.4589 60.343 33.4589 60.7919C33.4589 61.1129 33.4007 61.4268 33.2842 61.7336C33.1706 62.0376 32.9717 62.3771 32.6876 62.7521C32.4064 63.1243 32.0158 63.5788 31.5158 64.1157L29.5555 66.2123V66.2805H33.6123V67.218H28.1067ZM38.3212 67.3373C37.7587 67.3373 37.2572 67.2407 36.8169 67.0476C36.3794 66.8544 36.0314 66.5859 35.7729 66.2422C35.5172 65.8956 35.378 65.4936 35.3552 65.0362H36.4291C36.4518 65.3174 36.5484 65.5603 36.7189 65.7649C36.8893 65.9666 37.1123 66.1228 37.3879 66.2336C37.6635 66.3444 37.9689 66.3998 38.3041 66.3998C38.6791 66.3998 39.0115 66.3345 39.3013 66.2038C39.591 66.0731 39.8183 65.8913 39.9831 65.6584C40.1479 65.4254 40.2302 65.1555 40.2302 64.8487C40.2302 64.5277 40.1507 64.245 39.9916 64.0007C39.8325 63.7535 39.5996 63.5603 39.2927 63.4211C38.9859 63.2819 38.6109 63.2123 38.1677 63.2123H37.4689V62.2748H38.1677C38.5143 62.2748 38.8183 62.2123 39.0797 62.0873C39.3439 61.9623 39.5498 61.7862 39.6976 61.5589C39.8481 61.3317 39.9234 61.0646 39.9234 60.7578C39.9234 60.4623 39.8581 60.2052 39.7274 59.9865C39.5967 59.7677 39.4121 59.5973 39.1734 59.4751C38.9376 59.353 38.6592 59.2919 38.3382 59.2919C38.0371 59.2919 37.753 59.3473 37.4859 59.4581C37.2217 59.566 37.0058 59.7237 36.8382 59.9311C36.6706 60.1356 36.5797 60.3828 36.5655 60.6726H35.5427C35.5598 60.2152 35.6976 59.8146 35.9561 59.4709C36.2146 59.1243 36.5527 58.8544 36.9703 58.6612C37.3908 58.468 37.8524 58.3714 38.3552 58.3714C38.895 58.3714 39.3581 58.4808 39.7445 58.6996C40.1308 58.9155 40.4277 59.201 40.6351 59.5561C40.8425 59.9112 40.9462 60.2947 40.9462 60.7067C40.9462 61.1981 40.8169 61.6172 40.5584 61.9638C40.3027 62.3103 39.9547 62.5504 39.5143 62.6839V62.7521C40.0655 62.843 40.4959 63.0774 40.8055 63.4552C41.1152 63.8302 41.27 64.2947 41.27 64.8487C41.27 65.3231 41.1408 65.7493 40.8822 66.1271C40.6266 66.5021 40.2771 66.7976 39.8339 67.0135C39.3908 67.2294 38.8865 67.3373 38.3212 67.3373ZM42.8084 65.4282V64.5589L46.6436 58.4907H47.2743V59.8373H46.8481L43.9504 64.4226V64.4907H49.1152V65.4282H42.8084ZM46.9163 67.218V65.164V64.7592V58.4907H47.922V67.218H46.9163ZM31.3144 82.3373C30.8144 82.3373 30.3641 82.2379 29.9636 82.039C29.563 81.8402 29.242 81.5674 29.0005 81.2209C28.759 80.8743 28.6269 80.4794 28.6042 80.0362H29.6269C29.6667 80.4311 29.8457 80.7578 30.1638 81.0163C30.4849 81.272 30.8684 81.3998 31.3144 81.3998C31.6724 81.3998 31.9905 81.316 32.269 81.1484C32.5502 80.9808 32.7704 80.7507 32.9295 80.4581C33.0914 80.1626 33.1724 79.8288 33.1724 79.4567C33.1724 79.076 33.0886 78.7365 32.9209 78.4382C32.7562 78.1371 32.5289 77.8998 32.2391 77.7265C31.9494 77.5532 31.6184 77.4652 31.2462 77.4623C30.9792 77.4595 30.705 77.5007 30.4238 77.5859C30.1425 77.6683 29.911 77.7748 29.7292 77.9055L28.7405 77.7862L29.269 73.4907H33.803V74.4282H30.1553L29.8485 77.0021H29.8996C30.0786 76.8601 30.303 76.7422 30.5729 76.6484C30.8428 76.5547 31.1241 76.5078 31.4167 76.5078C31.9508 76.5078 32.4266 76.6356 32.8442 76.8913C33.2647 77.1442 33.5942 77.4907 33.8329 77.9311C34.0744 78.3714 34.1951 78.8743 34.1951 79.4396C34.1951 79.9964 34.0701 80.4936 33.8201 80.9311C33.5729 81.3657 33.232 81.7095 32.7974 81.9623C32.3627 82.2123 31.8684 82.3373 31.3144 82.3373ZM38.7856 82.3373C38.4277 82.3317 38.0697 82.2635 37.7118 82.1328C37.3538 82.0021 37.0271 81.7819 36.7317 81.4723C36.4362 81.1598 36.199 80.7379 36.02 80.2067C35.841 79.6726 35.7516 79.0021 35.7516 78.1953C35.7516 77.4226 35.824 76.7379 35.9689 76.1413C36.1138 75.5419 36.324 75.0376 36.5996 74.6285C36.8751 74.2166 37.2075 73.9041 37.5967 73.691C37.9888 73.478 38.4305 73.3714 38.922 73.3714C39.4106 73.3714 39.8453 73.4694 40.226 73.6655C40.6095 73.8586 40.922 74.1285 41.1635 74.4751C41.405 74.8217 41.5612 75.2209 41.6322 75.6726H40.5925C40.4959 75.2805 40.3084 74.9552 40.03 74.6967C39.7516 74.4382 39.3822 74.3089 38.922 74.3089C38.2459 74.3089 37.7132 74.603 37.324 75.191C36.9376 75.7791 36.743 76.6044 36.7402 77.6669H36.8084C36.9675 77.4254 37.1564 77.2194 37.3751 77.049C37.5967 76.8757 37.841 76.7422 38.1081 76.6484C38.3751 76.5547 38.6578 76.5078 38.9561 76.5078C39.4561 76.5078 39.9135 76.6328 40.3283 76.8828C40.743 77.1299 41.0754 77.4723 41.3254 77.9098C41.5754 78.3444 41.7004 78.843 41.7004 79.4055C41.7004 79.9453 41.5797 80.4396 41.3382 80.8885C41.0967 81.3345 40.7572 81.6896 40.3197 81.9538C39.8851 82.2152 39.3737 82.343 38.7856 82.3373ZM38.7856 81.3998C39.1436 81.3998 39.4646 81.3103 39.7487 81.1314C40.0356 80.9524 40.2615 80.7123 40.4263 80.4112C40.5939 80.1101 40.6777 79.7748 40.6777 79.4055C40.6777 79.0447 40.5967 78.7166 40.4348 78.4211C40.2757 78.1228 40.0555 77.8856 39.7743 77.7095C39.4959 77.5334 39.1777 77.4453 38.8197 77.4453C38.5498 77.4453 38.2984 77.4993 38.0655 77.6072C37.8325 77.7123 37.628 77.8572 37.4518 78.0419C37.2785 78.2265 37.1422 78.4382 37.0427 78.6768C36.9433 78.9126 36.8936 79.1612 36.8936 79.4226C36.8936 79.7692 36.9746 80.093 37.1365 80.3942C37.3013 80.6953 37.5257 80.9382 37.8098 81.1228C38.0967 81.3075 38.422 81.3998 38.7856 81.3998ZM43.6489 82.218L47.5523 74.4964V74.4282H43.0523V73.4907H48.6432V74.4794L44.7569 82.218H43.6489Z" fill="white"/>
<path d="M62.4982 0H61.4551V56.2406H62.4982V0Z" fill="white"/>
<path d="M64.5842 0H63.541V56.2406H64.5842V0Z" fill="white"/>
<path d="M66.6701 0H65.627V51.1278H66.6701V0Z" fill="white"/>
<path d="M69.8 0H68.7568V51.1278H69.8V0Z" fill="white"/>
<path d="M76.0591 0H72.9297V51.1278H76.0591V0Z" fill="white"/>
<path d="M78.1447 0H77.1016V51.1278H78.1447V0Z" fill="white"/>
<path d="M82.3178 0H80.2314V51.1278H82.3178V0Z" fill="white"/>
<path d="M86.4906 0H84.4043V51.1278H86.4906V0Z" fill="white"/>
<path d="M90.6627 0H87.5332V51.1278H90.6627V0Z" fill="white"/>
<path d="M93.7922 0H92.749V51.1278H93.7922V0Z" fill="white"/>
<path d="M96.9222 0H94.8359V51.1278H96.9222V0Z" fill="white"/>
<path d="M100.051 0H97.9648V51.1278H100.051V0Z" fill="white"/>
<path d="M103.181 0H102.138V51.1278H103.181V0Z" fill="white"/>
<path d="M105.267 0H104.224V51.1278H105.267V0Z" fill="white"/>
<path d="M81.0016 67.3373C80.4164 67.3373 79.8994 67.2336 79.4505 67.0263C79.0045 66.816 78.6565 66.5277 78.4065 66.1612C78.1565 65.7919 78.0329 65.3714 78.0357 64.8998C78.0329 64.5305 78.1053 64.1896 78.2531 63.8771C78.4008 63.5618 78.6025 63.299 78.8582 63.0888C79.1167 62.8757 79.405 62.7407 79.7232 62.6839V62.6328C79.3056 62.5248 78.9732 62.2905 78.7261 61.9297C78.4789 61.566 78.3568 61.1527 78.3596 60.6896C78.3568 60.2464 78.469 59.8501 78.6962 59.5007C78.9235 59.1513 79.236 58.8757 79.6337 58.674C80.0343 58.4723 80.4903 58.3714 81.0016 58.3714C81.5073 58.3714 81.959 58.4723 82.3568 58.674C82.7545 58.8757 83.067 59.1513 83.2943 59.5007C83.5244 59.8501 83.6408 60.2464 83.6437 60.6896C83.6408 61.1527 83.5144 61.566 83.2644 61.9297C83.0173 62.2905 82.6891 62.5248 82.28 62.6328V62.6839C82.5954 62.7407 82.8795 62.8757 83.1323 63.0888C83.3852 63.299 83.5869 63.5618 83.7374 63.8771C83.888 64.1896 83.9647 64.5305 83.9675 64.8998C83.9647 65.3714 83.8369 65.7919 83.584 66.1612C83.334 66.5277 82.986 66.816 82.54 67.0263C82.0968 67.2336 81.584 67.3373 81.0016 67.3373ZM81.0016 66.3998C81.3965 66.3998 81.7374 66.3359 82.0244 66.2081C82.3113 66.0802 82.5329 65.8998 82.6891 65.6669C82.8454 65.4339 82.9249 65.1612 82.9278 64.8487C82.9249 64.5192 82.8397 64.228 82.6721 63.9751C82.5045 63.7223 82.2758 63.5234 81.986 63.3785C81.6991 63.2336 81.371 63.1612 81.0016 63.1612C80.6295 63.1612 80.2971 63.2336 80.0045 63.3785C79.7147 63.5234 79.486 63.7223 79.3184 63.9751C79.1536 64.228 79.0727 64.5192 79.0755 64.8487C79.0727 65.1612 79.1479 65.4339 79.3014 65.6669C79.4576 65.8998 79.6806 66.0802 79.9704 66.2081C80.2602 66.3359 80.6039 66.3998 81.0016 66.3998ZM81.0016 62.2578C81.3141 62.2578 81.5911 62.1953 81.8326 62.0703C82.0769 61.9453 82.2687 61.7706 82.4079 61.5461C82.5471 61.3217 82.6181 61.0589 82.621 60.7578C82.6181 60.4623 82.5485 60.2052 82.4121 59.9865C82.2758 59.7649 82.0869 59.5944 81.8454 59.4751C81.6039 59.353 81.3227 59.2919 81.0016 59.2919C80.6749 59.2919 80.3894 59.353 80.1451 59.4751C79.9008 59.5944 79.7119 59.7649 79.5783 59.9865C79.4448 60.2052 79.3795 60.4623 79.3823 60.7578C79.3795 61.0589 79.4462 61.3217 79.5826 61.5461C79.7218 61.7706 79.9136 61.9453 80.1579 62.0703C80.4022 62.1953 80.6835 62.2578 81.0016 62.2578ZM88.3791 58.3714C88.7371 58.3743 89.095 58.4424 89.453 58.576C89.8109 58.7095 90.1376 58.9311 90.4331 59.2407C90.7286 59.5476 90.9658 59.9666 91.1447 60.4978C91.3237 61.0291 91.4132 61.6953 91.4132 62.4964C91.4132 63.272 91.3394 63.9609 91.1916 64.5632C91.0467 65.1626 90.8365 65.6683 90.5609 66.0802C90.2882 66.4922 89.9558 66.8047 89.5638 67.0177C89.1746 67.2308 88.7342 67.3373 88.2428 67.3373C87.7541 67.3373 87.318 67.2407 86.9345 67.0476C86.5538 66.8515 86.2413 66.5802 85.997 66.2336C85.7555 65.8842 85.6007 65.4794 85.5325 65.0192H86.5723C86.6661 65.4197 86.8521 65.7507 87.1305 66.0121C87.4118 66.2706 87.7825 66.3998 88.2428 66.3998C88.9161 66.3998 89.4473 66.1058 89.8365 65.5177C90.2286 64.9297 90.4246 64.0987 90.4246 63.0248H90.3564C90.1973 63.2635 90.0084 63.4694 89.7896 63.6427C89.5709 63.816 89.328 63.9496 89.0609 64.0433C88.7939 64.1371 88.5098 64.1839 88.2087 64.1839C87.7087 64.1839 87.2499 64.0603 86.8322 63.8132C86.4175 63.5632 86.0851 63.2209 85.8351 62.7862C85.5879 62.3487 85.4644 61.8487 85.4644 61.2862C85.4644 60.7521 85.5837 60.2635 85.8223 59.8203C86.0638 59.3743 86.4019 59.0192 86.8365 58.7549C87.274 58.4907 87.7882 58.3629 88.3791 58.3714ZM88.3791 59.3089C88.0212 59.3089 87.6987 59.3984 87.4118 59.5774C87.1277 59.7535 86.9019 59.9922 86.7342 60.2933C86.5695 60.5916 86.4871 60.9226 86.4871 61.2862C86.4871 61.6498 86.5666 61.9808 86.7257 62.2791C86.8876 62.5746 87.1078 62.8103 87.3862 62.9865C87.6675 63.1598 87.9871 63.2464 88.345 63.2464C88.6149 63.2464 88.8663 63.1939 89.0993 63.0888C89.3322 62.9808 89.5354 62.8345 89.7087 62.6498C89.8848 62.4623 90.0226 62.2507 90.122 62.0149C90.2215 61.7763 90.2712 61.5277 90.2712 61.2692C90.2712 60.9282 90.1888 60.6086 90.024 60.3103C89.8621 60.0121 89.6376 59.7706 89.3507 59.5859C89.0666 59.4013 88.7428 59.3089 88.3791 59.3089ZM96.1572 58.4907V67.218H95.1004V59.5987H95.0492L92.9185 61.0135V59.9396L95.1004 58.4907H96.1572ZM80.1563 82.3373C79.5142 82.3373 78.9674 82.1626 78.5157 81.8132C78.064 81.4609 77.7188 80.951 77.4802 80.2834C77.2415 79.6129 77.1222 78.8032 77.1222 77.8544C77.1222 76.9112 77.2415 76.1058 77.4802 75.4382C77.7216 74.7677 78.0682 74.2564 78.5199 73.9041C78.9745 73.549 79.5199 73.3714 80.1563 73.3714C80.7927 73.3714 81.3367 73.549 81.7884 73.9041C82.2429 74.2564 82.5895 74.7677 82.8282 75.4382C83.0696 76.1058 83.1904 76.9112 83.1904 77.8544C83.1904 78.8032 83.0711 79.6129 82.8324 80.2834C82.5938 80.951 82.2486 81.4609 81.7969 81.8132C81.3452 82.1626 80.7983 82.3373 80.1563 82.3373ZM80.1563 81.3998C80.7927 81.3998 81.287 81.093 81.6392 80.4794C81.9915 79.8657 82.1677 78.9907 82.1677 77.8544C82.1677 77.0987 82.0867 76.4552 81.9248 75.924C81.7657 75.3927 81.5356 74.9879 81.2344 74.7095C80.9361 74.4311 80.5767 74.2919 80.1563 74.2919C79.5256 74.2919 79.0327 74.603 78.6776 75.2251C78.3225 75.8444 78.1449 76.7209 78.1449 77.8544C78.1449 78.6101 78.2245 79.2521 78.3836 79.7805C78.5427 80.3089 78.7713 80.7109 79.0696 80.9865C79.3708 81.2621 79.733 81.3998 80.1563 81.3998ZM84.8097 82.218V81.451L87.6904 78.2976C88.0284 77.9282 88.3069 77.6072 88.5256 77.3345C88.7444 77.0589 88.9063 76.8004 89.0114 76.5589C89.1194 76.3146 89.1733 76.0589 89.1733 75.7919C89.1733 75.4851 89.0995 75.2194 88.9517 74.995C88.8069 74.7706 88.608 74.5973 88.3552 74.4751C88.1023 74.353 87.8182 74.2919 87.5029 74.2919C87.1677 74.2919 86.875 74.3615 86.625 74.5007C86.3779 74.6371 86.1861 74.8288 86.0498 75.076C85.9162 75.3231 85.8495 75.6129 85.8495 75.9453H84.8438C84.8438 75.4339 84.9617 74.9851 85.1975 74.5987C85.4333 74.2123 85.7543 73.9112 86.1606 73.6953C86.5696 73.4794 87.0284 73.3714 87.537 73.3714C88.0483 73.3714 88.5015 73.4794 88.8963 73.6953C89.2912 73.9112 89.6009 74.2024 89.8253 74.5689C90.0498 74.9353 90.162 75.343 90.162 75.7919C90.162 76.1129 90.1037 76.4268 89.9873 76.7336C89.8736 77.0376 89.6748 77.3771 89.3907 77.7521C89.1094 78.1243 88.7188 78.5788 88.2188 79.1157L86.2586 81.2123V81.2805H90.3154V82.218H84.8097ZM94.9731 82.3373C94.6151 82.3317 94.2571 82.2635 93.8992 82.1328C93.5412 82.0021 93.2145 81.7819 92.9191 81.4723C92.6236 81.1598 92.3864 80.7379 92.2074 80.2067C92.0284 79.6726 91.939 79.0021 91.939 78.1953C91.939 77.4226 92.0114 76.7379 92.1563 76.1413C92.3012 75.5419 92.5114 75.0376 92.787 74.6285C93.0625 74.2166 93.3949 73.9041 93.7841 73.691C94.1762 73.478 94.6179 73.3714 95.1094 73.3714C95.5981 73.3714 96.0327 73.4694 96.4134 73.6655C96.7969 73.8586 97.1094 74.1285 97.3509 74.4751C97.5924 74.8217 97.7486 75.2209 97.8196 75.6726H96.7799C96.6833 75.2805 96.4958 74.9552 96.2174 74.6967C95.939 74.4382 95.5696 74.3089 95.1094 74.3089C94.4333 74.3089 93.9006 74.603 93.5114 75.191C93.125 75.7791 92.9304 76.6044 92.9276 77.6669H92.9958C93.1549 77.4254 93.3438 77.2194 93.5625 77.049C93.7841 76.8757 94.0284 76.7422 94.2955 76.6484C94.5625 76.5547 94.8452 76.5078 95.1435 76.5078C95.6435 76.5078 96.1009 76.6328 96.5157 76.8828C96.9304 77.1299 97.2628 77.4723 97.5128 77.9098C97.7628 78.3444 97.8878 78.843 97.8878 79.4055C97.8878 79.9453 97.7671 80.4396 97.5256 80.8885C97.2841 81.3345 96.9446 81.6896 96.5071 81.9538C96.0725 82.2152 95.5611 82.343 94.9731 82.3373ZM94.9731 81.3998C95.331 81.3998 95.652 81.3103 95.9361 81.1314C96.2231 80.9524 96.4489 80.7123 96.6137 80.4112C96.7813 80.1101 96.8651 79.7748 96.8651 79.4055C96.8651 79.0447 96.7841 78.7166 96.6222 78.4211C96.4631 78.1228 96.2429 77.8856 95.9617 77.7095C95.6833 77.5334 95.3651 77.4453 95.0071 77.4453C94.7373 77.4453 94.4858 77.4993 94.2529 77.6072C94.0199 77.7123 93.8154 77.8572 93.6392 78.0419C93.4659 78.2265 93.3296 78.4382 93.2302 78.6768C93.1307 78.9126 93.081 79.1612 93.081 79.4226C93.081 79.7692 93.162 80.093 93.3239 80.3942C93.4887 80.6953 93.7131 80.9382 93.9972 81.1228C94.2841 81.3075 94.6094 81.3998 94.9731 81.3998Z" fill="white"/>
<path d="M110.484 0H109.44V56.2406H110.484V0Z" fill="white"/>
<path d="M112.57 0H111.526V56.2406H112.57V0Z" fill="white"/>
</svg>
