<svg width="22" height="20" viewBox="0 0 22 20" fill="none" xmlns="http://www.w3.org/2000/svg">
<path d="M8.00002 1.5V18.5M1.46402 7.344C1.21602 7.344 0.989018 7.142 1.00002 6.879C1.06702 5.337 1.25502 4.333 1.78002 3.539C2.07948 3.08653 2.45503 2.68933 2.89002 2.365C4.05502 1.5 5.70002 1.5 8.99202 1.5H13.006C16.298 1.5 17.943 1.5 19.11 2.365C19.541 2.685 19.917 3.082 20.219 3.539C20.744 4.333 20.932 5.337 20.999 6.879C21.01 7.142 20.783 7.344 20.534 7.344C19.148 7.344 18.024 8.533 18.024 10C18.024 11.467 19.148 12.656 20.534 12.656C20.783 12.656 21.01 12.858 20.999 13.122C20.932 14.663 20.744 15.667 20.219 16.462C19.9195 16.9141 19.5439 17.311 19.109 17.635C17.943 18.5 16.298 18.5 13.006 18.5H8.99302C5.70102 18.5 4.05602 18.5 2.88902 17.635C2.45438 17.3106 2.07918 16.9134 1.78002 16.461C1.25502 15.667 1.06702 14.663 1.00002 13.121C0.989018 12.858 1.21602 12.656 1.46402 12.656C2.85002 12.656 3.97402 11.467 3.97402 10C3.97402 8.533 2.85002 7.344 1.46402 7.344Z" stroke="white" stroke-width="1.5" stroke-linecap="round" stroke-linejoin="round"/>
</svg>
